
            <svg xmlns="http://www.w3.org/2000/svg" xmlns:cc="http://creativecommons.org/ns#" xmlns:rdf="http://www.w3.org/1999/02/22-rdf-syntax-ns#" version="1.1" width="999" height="151">
              <defs>
                <style type="text/css">svg{background-color:#fff}text,tspan{font:12px Arial}path{fill-opacity:0;stroke-width:2px;stroke:#000}circle{fill:#6b6659;stroke-width:2px;stroke:#000}.anchor text,.any-character text{fill:#fff}.anchor rect,.any-character rect{fill:#6b6659}.escape text,.charset-escape text,.literal text{fill:#000}.escape rect,.charset-escape rect{fill:#bada55}.literal rect{fill:#dae9e5}.charset .charset-box{fill:#cbcbba}.subexp .subexp-label tspan,.charset .charset-label tspan,.match-fragment .repeat-label tspan{font-size:10px}.repeat-label{cursor:help}.subexp .subexp-label tspan,.charset .charset-label tspan{dominant-baseline:text-after-edge}.subexp .subexp-box{stroke:#908c83;stroke-dasharray:6,2;stroke-width:2px;fill-opacity:0}.quote{fill:#908c83}
          </style>
              </defs>
              <metadata>
                <rdf:rdf>
                  <cc:license rdf:about="http://creativecommons.org/licenses/by/3.0/">
                    <cc:permits rdf:resource="http://creativecommons.org/ns#Reproduction"></cc:permits>
                    <cc:permits rdf:resource="http://creativecommons.org/ns#Distribution"></cc:permits>
                    <cc:requires rdf:resource="http://creativecommons.org/ns#Notice"></cc:requires>
                    <cc:requires rdf:resource="http://creativecommons.org/ns#Attribution"></cc:requires>
                    <cc:permits rdf:resource="http://creativecommons.org/ns#DerivativeWorks"></cc:permits>
                  </cc:license>
                </rdf:rdf>
              </metadata>
            <desc>Created with Snap</desc><g transform="matrix(1,0,0,1,15,10)" class="root"><g transform="matrix(1,0,0,1,10,0)" class="regexp match"><path d="M71,79.5H91M128,79.5H178M274,79.5H324M354,79.5H374M411,79.5H461M557,79.5H607M628,79.5H648M685,79.5H735M831,79.5H881"></path><g class="match-fragment" transform="matrix(1,0,0,1,0,67.5)"><g class="label anchor"><rect width="71" height="24"></rect><text x="0" y="0" transform="matrix(1,0,0,1,5,17)"><tspan>Start of line</tspan></text></g></g><g class="match-fragment" transform="matrix(1,0,0,1,81,67.5)"><path d="M10,12q-10,0 -10,10v2q0,10 10,10h37q10,0 10,-10v-2q0,-10 -10,-10M57,27l5,-5m-5,5l-5,-5"></path><g class="escape" transform="matrix(1,0,0,1,10,0)"><g class="label"><rect width="37" height="24" rx="3" ry="3"></rect><text x="0" y="0" transform="matrix(1,0,0,1,5,17)"><tspan>word</tspan></text></g></g></g><g class="match-fragment" transform="matrix(1,0,0,1,153,0)"><path d="M0,79.5q10,0 10,-10v-59.5q0,-10 10,-10h121q10,0 10,10v59.5q0,10 10,10M15,79.5q-10,0 -10,10v31.5q0,10 10,10h131q10,0 10,-10v-31.5q0,-10 -10,-10M156,94.5l5,-5m-5,5l-5,-5"></path><g class="subexp" transform="matrix(1,0,0,1,15,10)"><rect rx="3" ry="3" class="subexp-box" transform="matrix(1,0,0,1,0,14)" width="131" height="97"></rect><text x="0" y="0" transform="matrix(1,0,0,1,0,14)" class="subexp-label"><tspan>group #1</tspan></text><g transform="matrix(1,0,0,1,10,24)" class="regexp match"><path d="M39,45.5H59"></path><g class="match-fragment charset" transform="matrix(1,0,0,1,0,0)"><rect rx="3" ry="3" class="charset-box" transform="matrix(1,0,0,1,0,14)" width="39" height="63"></rect><text x="0" y="0" transform="matrix(1,0,0,1,0,14)" class="charset-label"><tspan>One of:</tspan></text><g transform="matrix(1,0,0,1,8.5,19)"><g class="literal" transform="matrix(1,0,0,1,0,0)"><g class="label"><rect width="22" height="24" rx="3" ry="3"></rect><text x="0" y="0" transform="matrix(1,0,0,1,5,17)"><tspan class="quote">“</tspan><tspan>-</tspan><tspan class="quote">”</tspan></text></g></g><g class="literal" transform="matrix(1,0,0,1,0.5,29)"><g class="label"><rect width="21" height="24" rx="3" ry="3"></rect><text x="0" y="0" transform="matrix(1,0,0,1,5,17)"><tspan class="quote">“</tspan><tspan>.</tspan><tspan class="quote">”</tspan></text></g></g></g></g><g class="match-fragment" transform="matrix(1,0,0,1,49,33.5)"><path d="M10,12q-10,0 -10,10v2q0,10 10,10h37q10,0 10,-10v-2q0,-10 -10,-10M57,27l5,-5m-5,5l-5,-5"></path><g class="escape" transform="matrix(1,0,0,1,10,0)"><g class="label"><rect width="37" height="24" rx="3" ry="3"></rect><text x="0" y="0" transform="matrix(1,0,0,1,5,17)"><tspan>word</tspan></text></g></g></g></g></g></g><g class="match-fragment literal" transform="matrix(1,0,0,1,324,67.5)"><g class="label"><rect width="30" height="24" rx="3" ry="3"></rect><text x="0" y="0" transform="matrix(1,0,0,1,5,17)"><tspan class="quote">“</tspan><tspan>@</tspan><tspan class="quote">”</tspan></text></g></g><g class="match-fragment" transform="matrix(1,0,0,1,364,67.5)"><path d="M10,12q-10,0 -10,10v2q0,10 10,10h37q10,0 10,-10v-2q0,-10 -10,-10M57,27l5,-5m-5,5l-5,-5"></path><g class="escape" transform="matrix(1,0,0,1,10,0)"><g class="label"><rect width="37" height="24" rx="3" ry="3"></rect><text x="0" y="0" transform="matrix(1,0,0,1,5,17)"><tspan>word</tspan></text></g></g></g><g class="match-fragment" transform="matrix(1,0,0,1,436,0)"><path d="M0,79.5q10,0 10,-10v-59.5q0,-10 10,-10h121q10,0 10,10v59.5q0,10 10,10M15,79.5q-10,0 -10,10v31.5q0,10 10,10h131q10,0 10,-10v-31.5q0,-10 -10,-10M156,94.5l5,-5m-5,5l-5,-5"></path><g class="subexp" transform="matrix(1,0,0,1,15,10)"><rect rx="3" ry="3" class="subexp-box" transform="matrix(1,0,0,1,0,14)" width="131" height="97"></rect><text x="0" y="0" transform="matrix(1,0,0,1,0,14)" class="subexp-label"><tspan>group #2</tspan></text><g transform="matrix(1,0,0,1,10,24)" class="regexp match"><path d="M39,45.5H59"></path><g class="match-fragment charset" transform="matrix(1,0,0,1,0,0)"><rect rx="3" ry="3" class="charset-box" transform="matrix(1,0,0,1,0,14)" width="39" height="63"></rect><text x="0" y="0" transform="matrix(1,0,0,1,0,14)" class="charset-label"><tspan>One of:</tspan></text><g transform="matrix(1,0,0,1,8.5,19)"><g class="literal" transform="matrix(1,0,0,1,0,0)"><g class="label"><rect width="22" height="24" rx="3" ry="3"></rect><text x="0" y="0" transform="matrix(1,0,0,1,5,17)"><tspan class="quote">“</tspan><tspan>-</tspan><tspan class="quote">”</tspan></text></g></g><g class="literal" transform="matrix(1,0,0,1,0.5,29)"><g class="label"><rect width="21" height="24" rx="3" ry="3"></rect><text x="0" y="0" transform="matrix(1,0,0,1,5,17)"><tspan class="quote">“</tspan><tspan>.</tspan><tspan class="quote">”</tspan></text></g></g></g></g><g class="match-fragment" transform="matrix(1,0,0,1,49,33.5)"><path d="M10,12q-10,0 -10,10v2q0,10 10,10h37q10,0 10,-10v-2q0,-10 -10,-10M57,27l5,-5m-5,5l-5,-5"></path><g class="escape" transform="matrix(1,0,0,1,10,0)"><g class="label"><rect width="37" height="24" rx="3" ry="3"></rect><text x="0" y="0" transform="matrix(1,0,0,1,5,17)"><tspan>word</tspan></text></g></g></g></g></g></g><g class="match-fragment literal" transform="matrix(1,0,0,1,607,67.5)"><g class="label"><rect width="21" height="24" rx="3" ry="3"></rect><text x="0" y="0" transform="matrix(1,0,0,1,5,17)"><tspan class="quote">“</tspan><tspan>.</tspan><tspan class="quote">”</tspan></text></g></g><g class="match-fragment" transform="matrix(1,0,0,1,638,67.5)"><path d="M10,12q-10,0 -10,10v2q0,10 10,10h37q10,0 10,-10v-2q0,-10 -10,-10M57,27l5,-5m-5,5l-5,-5"></path><g class="escape" transform="matrix(1,0,0,1,10,0)"><g class="label"><rect width="37" height="24" rx="3" ry="3"></rect><text x="0" y="0" transform="matrix(1,0,0,1,5,17)"><tspan>word</tspan></text></g></g></g><g class="match-fragment" transform="matrix(1,0,0,1,710,0)"><path d="M0,79.5q10,0 10,-10v-59.5q0,-10 10,-10h121q10,0 10,10v59.5q0,10 10,10M15,79.5q-10,0 -10,10v31.5q0,10 10,10h131q10,0 10,-10v-31.5q0,-10 -10,-10M156,94.5l5,-5m-5,5l-5,-5"></path><g class="subexp" transform="matrix(1,0,0,1,15,10)"><rect rx="3" ry="3" class="subexp-box" transform="matrix(1,0,0,1,0,14)" width="131" height="97"></rect><text x="0" y="0" transform="matrix(1,0,0,1,0,14)" class="subexp-label"><tspan>group #3</tspan></text><g transform="matrix(1,0,0,1,10,24)" class="regexp match"><path d="M39,45.5H59"></path><g class="match-fragment charset" transform="matrix(1,0,0,1,0,0)"><rect rx="3" ry="3" class="charset-box" transform="matrix(1,0,0,1,0,14)" width="39" height="63"></rect><text x="0" y="0" transform="matrix(1,0,0,1,0,14)" class="charset-label"><tspan>One of:</tspan></text><g transform="matrix(1,0,0,1,8.5,19)"><g class="literal" transform="matrix(1,0,0,1,0,0)"><g class="label"><rect width="22" height="24" rx="3" ry="3"></rect><text x="0" y="0" transform="matrix(1,0,0,1,5,17)"><tspan class="quote">“</tspan><tspan>-</tspan><tspan class="quote">”</tspan></text></g></g><g class="literal" transform="matrix(1,0,0,1,0.5,29)"><g class="label"><rect width="21" height="24" rx="3" ry="3"></rect><text x="0" y="0" transform="matrix(1,0,0,1,5,17)"><tspan class="quote">“</tspan><tspan>.</tspan><tspan class="quote">”</tspan></text></g></g></g></g><g class="match-fragment" transform="matrix(1,0,0,1,49,33.5)"><path d="M10,12q-10,0 -10,10v2q0,10 10,10h37q10,0 10,-10v-2q0,-10 -10,-10M57,27l5,-5m-5,5l-5,-5"></path><g class="escape" transform="matrix(1,0,0,1,10,0)"><g class="label"><rect width="37" height="24" rx="3" ry="3"></rect><text x="0" y="0" transform="matrix(1,0,0,1,5,17)"><tspan>word</tspan></text></g></g></g></g></g></g><g class="match-fragment" transform="matrix(1,0,0,1,881,67.5)"><g class="label anchor"><rect width="68" height="24"></rect><text x="0" y="0" transform="matrix(1,0,0,1,5,17)"><tspan>End of line</tspan></text></g></g></g><path d="M10,79.5H0M959,79.5H969"></path><circle cx="0" cy="79.5" r="5"></circle><circle cx="969" cy="79.5" r="5"></circle></g></svg>
          