
            <svg xmlns="http://www.w3.org/2000/svg" xmlns:cc="http://creativecommons.org/ns#" xmlns:rdf="http://www.w3.org/1999/02/22-rdf-syntax-ns#" version="1.1" width="644" height="113">
              <defs>
                <style type="text/css">svg{background-color:#fff}text,tspan{font:12px Arial}path{fill-opacity:0;stroke-width:2px;stroke:#000}circle{fill:#6b6659;stroke-width:2px;stroke:#000}.anchor text,.any-character text{fill:#fff}.anchor rect,.any-character rect{fill:#6b6659}.escape text,.charset-escape text,.literal text{fill:#000}.escape rect,.charset-escape rect{fill:#bada55}.literal rect{fill:#dae9e5}.charset .charset-box{fill:#cbcbba}.subexp .subexp-label tspan,.charset .charset-label tspan,.match-fragment .repeat-label tspan{font-size:10px}.repeat-label{cursor:help}.subexp .subexp-label tspan,.charset .charset-label tspan{dominant-baseline:text-after-edge}.subexp .subexp-box{stroke:#908c83;stroke-dasharray:6,2;stroke-width:2px;fill-opacity:0}.quote{fill:#908c83}
          </style>
              </defs>
              <metadata>
                <rdf:rdf>
                  <cc:license rdf:about="http://creativecommons.org/licenses/by/3.0/">
                    <cc:permits rdf:resource="http://creativecommons.org/ns#Reproduction"></cc:permits>
                    <cc:permits rdf:resource="http://creativecommons.org/ns#Distribution"></cc:permits>
                    <cc:requires rdf:resource="http://creativecommons.org/ns#Notice"></cc:requires>
                    <cc:requires rdf:resource="http://creativecommons.org/ns#Attribution"></cc:requires>
                    <cc:permits rdf:resource="http://creativecommons.org/ns#DerivativeWorks"></cc:permits>
                  </cc:license>
                </rdf:rdf>
              </metadata>
            <desc>Created with Snap</desc><g transform="matrix(1,0,0,1,15,21)" class="root"><text x="0" y="0">Flags: Global</text><g transform="matrix(1,0,0,1,10,14)" class="regexp match"><path d="M71,36H101M134,36H169M190,36H220M253,36H288M309,36H339M372,36H407M428,36H458M491,36H526"></path><g class="match-fragment" transform="matrix(1,0,0,1,0,24)"><g class="label anchor"><rect width="71" height="24"></rect><text x="0" y="0" transform="matrix(1,0,0,1,5,17)"><tspan>Start of line</tspan></text></g></g><g class="match-fragment subexp" transform="matrix(1,0,0,1,81,0)"><rect rx="3" ry="3" class="subexp-box" transform="matrix(1,0,0,1,0,14)" width="78" height="54"></rect><text x="0" y="0" transform="matrix(1,0,0,1,0,14)" class="subexp-label"><tspan>group #1</tspan></text><g class="regexp match match-fragment" transform="matrix(1,0,0,1,10,24)"><path d="M10,12q-10,0 -10,10v2q0,10 10,10h33q10,0 10,-10v-2q0,-10 -10,-10M53,27l5,-5m-5,5l-5,-5"></path><g class="escape" transform="matrix(1,0,0,1,10,0)"><g class="label"><rect width="33" height="24" rx="3" ry="3"></rect><text x="0" y="0" transform="matrix(1,0,0,1,5,17)"><tspan>digit</tspan></text></g></g></g></g><g class="match-fragment literal" transform="matrix(1,0,0,1,169,24)"><g class="label"><rect width="21" height="24" rx="3" ry="3"></rect><text x="0" y="0" transform="matrix(1,0,0,1,5,17)"><tspan class="quote">“</tspan><tspan>.</tspan><tspan class="quote">”</tspan></text></g></g><g class="match-fragment subexp" transform="matrix(1,0,0,1,200,0)"><rect rx="3" ry="3" class="subexp-box" transform="matrix(1,0,0,1,0,14)" width="78" height="54"></rect><text x="0" y="0" transform="matrix(1,0,0,1,0,14)" class="subexp-label"><tspan>group #2</tspan></text><g class="regexp match match-fragment" transform="matrix(1,0,0,1,10,24)"><path d="M10,12q-10,0 -10,10v2q0,10 10,10h33q10,0 10,-10v-2q0,-10 -10,-10M53,27l5,-5m-5,5l-5,-5"></path><g class="escape" transform="matrix(1,0,0,1,10,0)"><g class="label"><rect width="33" height="24" rx="3" ry="3"></rect><text x="0" y="0" transform="matrix(1,0,0,1,5,17)"><tspan>digit</tspan></text></g></g></g></g><g class="match-fragment literal" transform="matrix(1,0,0,1,288,24)"><g class="label"><rect width="21" height="24" rx="3" ry="3"></rect><text x="0" y="0" transform="matrix(1,0,0,1,5,17)"><tspan class="quote">“</tspan><tspan>.</tspan><tspan class="quote">”</tspan></text></g></g><g class="match-fragment subexp" transform="matrix(1,0,0,1,319,0)"><rect rx="3" ry="3" class="subexp-box" transform="matrix(1,0,0,1,0,14)" width="78" height="54"></rect><text x="0" y="0" transform="matrix(1,0,0,1,0,14)" class="subexp-label"><tspan>group #3</tspan></text><g class="regexp match match-fragment" transform="matrix(1,0,0,1,10,24)"><path d="M10,12q-10,0 -10,10v2q0,10 10,10h33q10,0 10,-10v-2q0,-10 -10,-10M53,27l5,-5m-5,5l-5,-5"></path><g class="escape" transform="matrix(1,0,0,1,10,0)"><g class="label"><rect width="33" height="24" rx="3" ry="3"></rect><text x="0" y="0" transform="matrix(1,0,0,1,5,17)"><tspan>digit</tspan></text></g></g></g></g><g class="match-fragment literal" transform="matrix(1,0,0,1,407,24)"><g class="label"><rect width="21" height="24" rx="3" ry="3"></rect><text x="0" y="0" transform="matrix(1,0,0,1,5,17)"><tspan class="quote">“</tspan><tspan>.</tspan><tspan class="quote">”</tspan></text></g></g><g class="match-fragment subexp" transform="matrix(1,0,0,1,438,0)"><rect rx="3" ry="3" class="subexp-box" transform="matrix(1,0,0,1,0,14)" width="78" height="54"></rect><text x="0" y="0" transform="matrix(1,0,0,1,0,14)" class="subexp-label"><tspan>group #4</tspan></text><g class="regexp match match-fragment" transform="matrix(1,0,0,1,10,24)"><path d="M10,12q-10,0 -10,10v2q0,10 10,10h33q10,0 10,-10v-2q0,-10 -10,-10M53,27l5,-5m-5,5l-5,-5"></path><g class="escape" transform="matrix(1,0,0,1,10,0)"><g class="label"><rect width="33" height="24" rx="3" ry="3"></rect><text x="0" y="0" transform="matrix(1,0,0,1,5,17)"><tspan>digit</tspan></text></g></g></g></g><g class="match-fragment" transform="matrix(1,0,0,1,526,24)"><g class="label anchor"><rect width="68" height="24"></rect><text x="0" y="0" transform="matrix(1,0,0,1,5,17)"><tspan>End of line</tspan></text></g></g></g><path d="M10,50H0M604,50H614"></path><circle cx="0" cy="50" r="5"></circle><circle cx="614" cy="50" r="5"></circle></g></svg>
          